<svg xmlns="http://www.w3.org/2000/svg" xmlns:xlink="http://www.w3.org/1999/xlink" width="173" height="173" viewBox="0 0 173 173">
    <defs>
        <path id="a" d="M25.267 25.267h122v122h-122z"/>
    </defs>
    <g fill="none" fill-rule="evenodd">
        <mask id="b" fill="#fff">
            <use xlink:href="#a"/>
        </mask>
        <use fill="#D9D9D9" fill-rule="nonzero" transform="rotate(45 86.267 86.267)" xlink:href="#a"/>
        <g fill="#000" mask="url(#b)">
            <path d="M39.106 91.491a2.434 2.434 0 0 0-1.7-.698c-.633 0-1.253.255-1.701.698A2.388 2.388 0 0 0 35 93.176c0 .626.257 1.241.705 1.684a2.435 2.435 0 0 0 1.7.699c.633 0 1.254-.255 1.701-.699a2.388 2.388 0 0 0 .705-1.684c0-.627-.257-1.242-.705-1.685zM129.783 51H81.109c-1.329 0-2.406 1.067-2.406 2.383s1.077 2.383 2.406 2.383h48.674c1.327 0 2.406 1.069 2.406 2.382v107.704c0 1.313-1.08 2.382-2.406 2.382H42.217c-1.326 0-2.406-1.069-2.406-2.382v-63.78c0-1.316-1.077-2.383-2.405-2.383-1.329 0-2.406 1.067-2.406 2.383v63.78c0 3.941 3.238 7.148 7.217 7.148h87.566c3.98 0 7.217-3.207 7.217-7.148V58.148c0-3.941-3.238-7.148-7.217-7.148z"/>
            <path fill-rule="nonzero" d="M86 60.531c-1.637 0-3.282.124-4.89.368a2.386 2.386 0 0 0-2.013 2.717c.202 1.3 1.43 2.192 2.743 1.994a27.776 27.776 0 0 1 4.16-.313c14.99 0 27.184 12.079 27.184 26.926 0 6.593-2.406 12.639-6.393 17.325a23.918 23.918 0 0 0-7.098-7.607 24.045 24.045 0 0 0-5.46-2.802c2.191-2.122 3.555-5.078 3.555-8.346V88.47c0-6.438-5.288-11.676-11.788-11.676S74.212 82.032 74.212 88.47v2.323c0 3.268 1.364 6.224 3.555 8.346a24.055 24.055 0 0 0-5.46 2.802 23.92 23.92 0 0 0-7.124 7.65 26.724 26.724 0 0 1-5.992-12.88c-.22-1.297-1.46-2.172-2.77-1.955a2.385 2.385 0 0 0-1.975 2.744c1.237 7.306 5.066 13.993 10.782 18.83 5.781 4.89 13.158 7.585 20.772 7.585 17.642 0 31.995-14.217 31.995-31.692S103.642 60.531 86 60.531zM79.024 88.47c0-3.81 3.13-6.91 6.976-6.91 3.847 0 6.976 3.1 6.976 6.91v2.323c0 3.81-3.13 6.91-6.976 6.91-3.847 0-6.976-3.1-6.976-6.91V88.47zM86 119.149c-6.513 0-12.534-2.253-17.247-6.072 3.23-6.494 9.834-10.608 17.247-10.608 7.398 0 13.989 4.097 17.226 10.568A27.217 27.217 0 0 1 86 119.149z"/>
            <path d="M108.218 145.836h-34.16c-1.329 0-2.406 1.067-2.406 2.383s1.077 2.383 2.406 2.383h34.16c1.329 0 2.406-1.067 2.406-2.383s-1.078-2.383-2.406-2.383zM65.482 133.19a2.435 2.435 0 0 0-1.7-.698c-.633 0-1.254.255-1.701.698a2.39 2.39 0 0 0-.705 1.685c0 .629.257 1.241.705 1.684a2.435 2.435 0 0 0 1.7.699c.633 0 1.254-.255 1.701-.699.45-.443.705-1.057.705-1.684a2.38 2.38 0 0 0-.705-1.685zM65.482 146.534a2.43 2.43 0 0 0-1.7-.698c-.633 0-1.254.255-1.701.698a2.39 2.39 0 0 0-.705 1.685c0 .629.257 1.241.705 1.684a2.435 2.435 0 0 0 1.7.699c.633 0 1.254-.255 1.701-.699.45-.443.705-1.055.705-1.684a2.38 2.38 0 0 0-.705-1.685zM108.218 132.493h-34.16c-1.329 0-2.406 1.067-2.406 2.382 0 1.316 1.077 2.383 2.406 2.383h34.16c1.329 0 2.406-1.067 2.406-2.383 0-1.315-1.078-2.382-2.406-2.382zM63.297 64.732a2.423 2.423 0 0 0-3.403 0l-7.834 7.76-2.677-2.652a2.423 2.423 0 0 0-3.402 0c-.94.93-.94 2.44 0 3.37l4.378 4.337a2.41 2.41 0 0 0 1.701.698c.616 0 1.231-.233 1.701-.698l9.536-9.445c.94-.93.94-2.44 0-3.37z"/>
            <path fill-rule="nonzero" d="M54.726 51C43.85 51 35 59.765 35 70.54c0 10.773 8.85 19.538 19.726 19.538 10.878 0 19.727-8.765 19.727-19.539C74.453 59.765 65.603 51 54.726 51zm0 34.313c-8.224 0-14.915-6.628-14.915-14.774 0-8.146 6.691-14.773 14.915-14.773 8.225 0 14.916 6.627 14.916 14.773S62.95 85.312 54.726 85.312z"/>
        </g>
    </g>
</svg>
