<?xml version="1.0" encoding="UTF-8"?>
<svg width="173px" height="173px" viewBox="0 0 173 173" version="1.1" xmlns="http://www.w3.org/2000/svg" xmlns:xlink="http://www.w3.org/1999/xlink">
    <!-- Generator: sketchtool 52.6 (67491) - http://www.bohemiancoding.com/sketch -->
    <title>C08B20AD-9065-4C65-B4B2-404BA1C29D35</title>
    <desc>Created with sketchtool.</desc>
    <defs>
        <rect id="path-1" x="25.2670273" y="25.2670273" width="122" height="122"></rect>
    </defs>
    <g id="Page-1" stroke="none" stroke-width="1" fill="none" fill-rule="evenodd">
        <g id="Desktop-HD" transform="translate(-1094.000000, -3543.000000)">
            <g id="Group-4" transform="translate(1094.000000, 3543.000000)">
                <mask id="mask-2" fill="white">
                    <use xlink:href="#path-1"></use>
                </mask>
                <use id="Rectangle-Copy-29" fill="#D9D9D9" fill-rule="nonzero" transform="translate(86.267027, 86.267027) rotate(-315.000000) translate(-86.267027, -86.267027) " xlink:href="#path-1"></use>
                <g id="004-school" mask="url(#mask-2)" fill="#000000">
                    <g transform="translate(25.000000, 52.000000)">
                        <path d="M47.4346484,33.3429336 C46.9914453,32.8997305 46.3766797,32.6447695 45.75,32.6447695 C45.1233203,32.6447695 44.5085547,32.8997305 44.0653516,33.3429336 C43.6221484,33.7861367 43.3671875,34.4009023 43.3671875,35.027582 C43.3671875,35.6542617 43.6221484,36.2690273 44.0653516,36.7122305 C44.5085547,37.1554336 45.1233203,37.4103945 45.75,37.4103945 C46.3766797,37.4103945 46.9914453,37.1554336 47.4346484,36.7122305 C47.8778516,36.2690273 48.1328125,35.6542617 48.1328125,35.027582 C48.1328125,34.4009023 47.8778516,33.7858984 47.4346484,33.3429336 Z" id="Path" fill-rule="evenodd"></path>
                        <path d="M119.617188,46.7033633 L91.294125,46.7033633 C91.2886445,46.6978828 91.2841172,46.6916875 91.2786367,46.6864453 L63.3828125,18.7903828 L63.3828125,14.2971133 L81.4921875,14.2971133 C82.8082148,14.2971133 83.875,13.2303281 83.875,11.9143008 L83.875,2.38305078 C83.875,1.06702344 82.8082148,0.00023828125 81.4921875,0.00023828125 L61,0.00023828125 C59.6839727,0.00023828125 58.6171875,1.06702344 58.6171875,2.38305078 L58.6171875,18.7903828 L49.3966562,28.0109141 C48.466168,28.9414023 48.466168,30.4501992 49.3966562,31.3809258 C50.3271445,32.3114141 51.8359414,32.3114141 52.766668,31.3809258 L61,23.1471172 L87.2109375,49.3580547 L87.2109375,117.234375 L82.4453125,117.234375 L82.4453125,91.0234375 C82.4453125,89.7076484 81.3785273,88.640625 80.0625,88.640625 L41.9375,88.640625 C40.6214727,88.640625 39.5546875,89.7076484 39.5546875,91.0234375 L39.5546875,117.234375 L34.7890625,117.234375 L34.7890625,49.3580547 L42.0139883,42.1331289 C42.9444766,41.2026406 42.9444766,39.6938437 42.0139883,38.7631172 C41.0835,37.8326289 39.5747031,37.8326289 38.6439766,38.7631172 L30.721125,46.6859687 C30.7156445,46.6914492 30.7111172,46.6974062 30.7056367,46.7028867 L2.3828125,46.7028867 C1.06678516,46.7028867 0,47.7696719 0,49.0856992 L0,119.616949 C0,120.932738 1.06678516,121.999762 2.3828125,121.999762 L119.617188,121.999762 C120.933215,121.999762 122,120.932738 122,119.616949 L122,49.0861758 C122,47.7701484 120.933215,46.7033633 119.617188,46.7033633 Z M63.3828125,4.76586328 L79.109375,4.76586328 L79.109375,9.53148828 L63.3828125,9.53148828 L63.3828125,4.76586328 Z M30.0234375,117.234613 L4.765625,117.234613 L4.765625,64.8127383 L30.0234375,64.8127383 L30.0234375,117.234613 Z M30.0234375,60.0471133 L4.765625,60.0471133 L4.765625,51.4689883 L30.0234375,51.4689883 L30.0234375,60.0471133 Z M58.6171875,117.234613 L44.3203125,117.234613 L44.3203125,93.4064883 L58.6171875,93.4064883 L58.6171875,117.234613 Z M77.6796875,117.234613 L63.3828125,117.234613 L63.3828125,93.4064883 L77.6796875,93.4064883 L77.6796875,117.234613 Z M117.234375,117.234613 L91.9765625,117.234613 L91.9765625,64.8127383 L117.234375,64.8127383 L117.234375,117.234613 Z M117.234375,60.0471133 L91.9765625,60.0471133 L91.9765625,51.4689883 L117.234375,51.4689883 L117.234375,60.0471133 Z" id="Shape" fill-rule="nonzero"></path>
                        <path d="M60.8887227,38.5715391 C55.0908633,38.5715391 50.3740859,43.2883164 50.3740859,49.0861758 C50.3740859,54.8840352 55.0908633,59.6008125 60.8887227,59.6008125 C66.686582,59.6008125 71.4033594,54.8840352 71.4033594,49.0861758 C71.4033594,43.2880781 66.686582,38.5715391 60.8887227,38.5715391 Z M60.8887227,54.8351875 C57.7186289,54.8351875 55.1397109,52.2562695 55.1397109,49.0861758 C55.1397109,45.916082 57.7186289,43.3371641 60.8887227,43.3371641 C64.0588164,43.3371641 66.6377344,45.916082 66.6377344,49.0861758 C66.6377344,52.2562695 64.0585781,54.8351875 60.8887227,54.8351875 Z" id="Shape" fill-rule="nonzero"></path>
                        <path d="M80.0625,69.5783633 L71.3652344,69.5783633 C70.049207,69.5783633 68.9824219,70.6453867 68.9824219,71.9611758 C68.9824219,73.2769648 70.049207,74.3439883 71.3652344,74.3439883 L77.6796875,74.3439883 L77.6796875,79.1096133 L44.3203125,79.1096133 L44.3203125,74.3439883 L51.2304688,74.3439883 C52.5464961,74.3439883 53.6132812,73.2769648 53.6132812,71.9611758 C53.6132812,70.6453867 52.5464961,69.5783633 51.2304688,69.5783633 L41.9375,69.5783633 C40.6214727,69.5783633 39.5546875,70.6453867 39.5546875,71.9611758 L39.5546875,81.4924258 C39.5546875,82.8082148 40.6214727,83.8752383 41.9375,83.8752383 L80.0625,83.8752383 C81.3785273,83.8752383 82.4453125,82.8082148 82.4453125,81.4924258 L82.4453125,71.9611758 C82.4453125,70.6451484 81.3785273,69.5783633 80.0625,69.5783633 Z" id="Path" fill-rule="evenodd"></path>
                        <path d="M62.5750391,70.2765273 C62.1294531,69.8333242 61.5170703,69.5783633 60.8880078,69.5783633 C60.2613281,69.5783633 59.6465625,69.8330859 59.2033594,70.2765273 C58.7601563,70.7197305 58.5051953,71.3344961 58.5051953,71.9611758 C58.5051953,72.5878555 58.7601563,73.2026211 59.2033594,73.6455859 C59.6465625,74.0887891 60.2613281,74.3439883 60.8880078,74.3439883 C61.5146875,74.3439883 62.1294531,74.0890273 62.5750391,73.6455859 C63.0182422,73.2026211 63.2708203,72.5878555 63.2708203,71.9611758 C63.2708203,71.3344961 63.0182422,70.7194922 62.5750391,70.2765273 Z" id="Path" fill-rule="evenodd"></path>
                        <path d="M22.1601562,69.5783633 L12.6289062,69.5783633 C11.3128789,69.5783633 10.2460938,70.6453867 10.2460938,71.9611758 L10.2460938,81.4924258 C10.2460938,82.8082148 11.3128789,83.8752383 12.6289062,83.8752383 L22.1601562,83.8752383 C23.4761836,83.8752383 24.5429688,82.8082148 24.5429688,81.4924258 L24.5429688,71.9611758 C24.5429688,70.6451484 23.4761836,69.5783633 22.1601562,69.5783633 Z M19.7773438,79.1096133 L15.0117188,79.1096133 L15.0117188,74.3439883 L19.7773438,74.3439883 L19.7773438,79.1096133 Z" id="Shape" fill-rule="nonzero"></path>
                        <path d="M22.1601562,94.8361758 L12.6289062,94.8361758 C11.3128789,94.8361758 10.2460938,95.9031992 10.2460938,97.2189883 L10.2460938,106.750238 C10.2460938,108.066027 11.3128789,109.133051 12.6289062,109.133051 L22.1601562,109.133051 C23.4761836,109.133051 24.5429688,108.066027 24.5429688,106.750238 L24.5429688,97.2189883 C24.5429688,95.9029609 23.4761836,94.8361758 22.1601562,94.8361758 Z M19.7773438,104.367426 L15.0117188,104.367426 L15.0117188,99.6018008 L19.7773438,99.6018008 L19.7773438,104.367426 Z" id="Shape" fill-rule="nonzero"></path>
                        <path d="M108.915023,69.5783633 L99.3837734,69.5783633 C98.0677461,69.5783633 97.0009609,70.6453867 97.0009609,71.9611758 L97.0009609,81.4924258 C97.0009609,82.8082148 98.0677461,83.8752383 99.3837734,83.8752383 L108.915023,83.8752383 C110.231051,83.8752383 111.297836,82.8082148 111.297836,81.4924258 L111.297836,71.9611758 C111.297836,70.6451484 110.231051,69.5783633 108.915023,69.5783633 Z M106.532211,79.1096133 L101.766586,79.1096133 L101.766586,74.3439883 L106.532211,74.3439883 L106.532211,79.1096133 Z" id="Shape" fill-rule="nonzero"></path>
                        <path d="M108.915023,94.8361758 L99.3837734,94.8361758 C98.0677461,94.8361758 97.0009609,95.9031992 97.0009609,97.2189883 L97.0009609,106.750238 C97.0009609,108.066027 98.0677461,109.133051 99.3837734,109.133051 L108.915023,109.133051 C110.231051,109.133051 111.297836,108.066027 111.297836,106.750238 L111.297836,97.2189883 C111.297836,95.9029609 110.231051,94.8361758 108.915023,94.8361758 Z M106.532211,104.367426 L101.766586,104.367426 L101.766586,99.6018008 L106.532211,99.6018008 L106.532211,104.367426 Z" id="Shape" fill-rule="nonzero"></path>
                    </g>
                </g>
            </g>
        </g>
    </g>
</svg>