<?xml version="1.0" encoding="UTF-8"?>
<svg width="173px" height="173px" viewBox="0 0 173 173" version="1.1" xmlns="http://www.w3.org/2000/svg" xmlns:xlink="http://www.w3.org/1999/xlink">
    <!-- Generator: sketchtool 52.6 (67491) - http://www.bohemiancoding.com/sketch -->
    <title>7AD11E1D-B679-4F9E-9221-3983497F78AC</title>
    <desc>Created with sketchtool.</desc>
    <defs>
        <rect id="path-1" x="25.2670273" y="25.2670273" width="122" height="122"></rect>
    </defs>
    <g id="Page-1" stroke="none" stroke-width="1" fill="none" fill-rule="evenodd">
        <g id="Desktop-HD" transform="translate(-785.000000, -3543.000000)">
            <g id="Group-5" transform="translate(785.000000, 3543.000000)">
                <mask id="mask-2" fill="white">
                    <use xlink:href="#path-1"></use>
                </mask>
                <use id="Rectangle-Copy-28" fill="#D9D9D9" fill-rule="nonzero" transform="translate(86.267027, 86.267027) rotate(-315.000000) translate(-86.267027, -86.267027) " xlink:href="#path-1"></use>
                <g id="003-approval" mask="url(#mask-2)" fill="#000000">
                    <g transform="translate(25.000000, 51.000000)">
                        <path d="M43.9197617,0.698164063 C43.4767969,0.254960938 42.8620313,0 42.2353516,0 C41.6060508,0 40.9939062,0.254960938 40.5507031,0.698164063 C40.1075,1.14136719 39.8525391,1.75613281 39.8525391,2.3828125 C39.8525391,3.011875 40.1072617,3.62425781 40.5507031,4.06746094 C40.9941445,4.51066406 41.6086719,4.765625 42.2353516,4.765625 C42.8620313,4.765625 43.4767969,4.51066406 43.9197617,4.06746094 C44.3629648,3.62425781 44.6181641,3.00949219 44.6181641,2.3828125 C44.6181641,1.75613281 44.3632031,1.14136719 43.9197617,0.698164063 Z" id="Path" fill-rule="evenodd"></path>
                        <path d="M121.995711,44.4404062 C121.960684,43.7439102 121.623039,43.0688594 121.013992,42.6282773 L109.132812,34.0313281 L109.132812,7.1484375 C109.132812,3.20678906 105.926023,0 101.984375,0 L51.5878906,0 C50.2721016,0 49.2050781,1.06678516 49.2050781,2.3828125 C49.2050781,3.69883984 50.2721016,4.765625 51.5878906,4.765625 L101.984375,4.765625 C103.298258,4.765625 104.367188,5.83455469 104.367188,7.1484375 L104.367188,53.9335313 L75.2809102,77.6815937 L67.9842617,72.4019961 C63.8067148,69.3791602 58.1930469,69.3791602 54.0159766,72.4019961 L46.7190898,77.681832 L17.6328125,53.9337695 L17.6328125,7.1484375 C17.6328125,5.83455469 18.7017422,4.765625 20.015625,4.765625 L33.0019531,4.765625 C34.3177422,4.765625 35.3847656,3.69883984 35.3847656,2.3828125 C35.3847656,1.06678516 34.3177422,0 33.0019531,0 L20.015625,0 C16.0739766,0 12.8671875,3.20678906 12.8671875,7.1484375 L12.8671875,34.0310898 L0.986007812,42.6282773 C0.986722656,42.6287539 0.9874375,42.6289922 0.988390625,42.6294688 C0.390304687,43.0624258 0,43.7641641 0,44.5585938 L0,110.085938 C0,116.655352 5.34464844,122 11.9140625,122 L110.085938,122 C116.655352,122 122,116.655352 122,110.085938 L122,44.5585938 C122,44.5154648 121.99857,44.4763867 121.995711,44.4404062 Z M109.132812,39.9135391 L115.71009,44.6724922 L109.132812,50.0426367 L109.132812,39.9135391 Z M12.8671875,39.9135391 L12.8671875,50.0426367 L6.28991016,44.6724922 L12.8671875,39.9135391 Z M4.765625,49.5801328 L42.7243047,80.5724219 L4.765625,108.038387 L4.765625,49.5801328 Z M110.085938,117.234375 L11.9140625,117.234375 C9.14737891,117.234375 6.74455078,115.653379 5.55671875,113.348246 L56.8095859,76.2628672 C59.3158281,74.4493086 62.6841719,74.4493086 65.1904141,76.2628672 L106.007039,105.796875 L82.2070312,105.796875 C80.8912422,105.796875 79.8242188,106.86366 79.8242188,108.179688 C79.8242188,109.495715 80.8912422,110.5625 82.2070312,110.5625 L112.593133,110.5625 L116.443281,113.348246 C115.255449,115.653379 112.852621,117.234375 110.085938,117.234375 Z M117.234375,108.038387 L79.2756953,80.5721836 L117.234375,49.5801328 L117.234375,108.038387 Z" id="Shape" fill-rule="nonzero"></path>
                        <path d="M72.7434531,28.4360078 C71.8127266,27.5055195 70.3044063,27.5055195 69.3734414,28.4360078 L57.6809805,40.128707 L52.6263203,35.0740469 C51.6955938,34.1435586 50.1872734,34.1435586 49.2563086,35.0740469 C48.3258203,36.0045352 48.3258203,37.513332 49.2563086,38.4440586 L55.9960938,45.1833672 C56.4431094,45.6301445 57.0490586,45.881293 57.6809805,45.881293 C58.3129023,45.881293 58.9188516,45.6301445 59.3658672,45.1833672 L72.7434531,31.8057812 C73.6739414,30.875293 73.6739414,29.3664961 72.7434531,28.4360078 Z" id="Path" fill-rule="evenodd"></path>
                        <path d="M61,12.8671875 C47.7982656,12.8671875 37.0577383,23.6077148 37.0577383,36.8094492 C37.0577383,50.0111836 47.7982656,60.7519492 61,60.7519492 C74.2017344,60.7519492 84.9422617,50.0114219 84.9422617,36.8096875 C84.9422617,23.6079531 74.2017344,12.8671875 61,12.8671875 Z M61,55.9863242 C50.425793,55.9863242 41.8233633,47.3836562 41.8233633,36.8096875 C41.8233633,26.2357188 50.425793,17.6328125 61,17.6328125 C71.574207,17.6328125 80.1766367,26.2354805 80.1766367,36.8094492 C80.1766367,47.383418 71.574207,55.9863242 61,55.9863242 Z" id="Shape" fill-rule="nonzero"></path>
                        <path d="M73.0903906,106.495039 C72.6471875,106.051836 72.0324219,105.796875 71.4057422,105.796875 C70.7766797,105.796875 70.1642969,106.051836 69.7210938,106.495039 C69.2755078,106.938242 69.0229297,107.553008 69.0229297,108.179688 C69.0229297,108.806367 69.2755078,109.421133 69.7210938,109.864336 C70.1642969,110.307539 70.776918,110.5625 71.4057422,110.5625 C72.0324219,110.5625 72.6471875,110.307539 73.0903906,109.864336 C73.5333555,109.421133 73.7885547,108.806367 73.7885547,108.179688 C73.7885547,107.553008 73.5335938,106.938242 73.0903906,106.495039 Z" id="Path" fill-rule="evenodd"></path>
                    </g>
                </g>
            </g>
        </g>
    </g>
</svg>