<svg xmlns="http://www.w3.org/2000/svg" xmlns:xlink="http://www.w3.org/1999/xlink" width="173" height="173" viewBox="0 0 173 173">
    <defs>
        <path id="a" d="M25.267 25.267h122v122h-122z"/>
    </defs>
    <g fill="none" fill-rule="evenodd">
        <mask id="b" fill="#fff">
            <use xlink:href="#a"/>
        </mask>
        <use fill="#EEA113" fill-rule="nonzero" transform="rotate(45 86.267 86.267)" xlink:href="#a"/>
        <g fill="#FFF" mask="url(#b)">
            <path d="M133.65 86.444a2.383 2.383 0 0 0 2.383-2.382V58.148c0-3.941-3.207-7.148-7.149-7.148H42.15c-3.942 0-7.148 3.207-7.148 7.148v107.704c0 3.941 3.206 7.148 7.148 7.148h86.734c3.942 0 7.149-3.207 7.149-7.148v-17.555a2.383 2.383 0 0 0-4.766 0v17.555a2.386 2.386 0 0 1-2.383 2.382H42.15a2.386 2.386 0 0 1-2.383-2.382V58.148a2.386 2.386 0 0 1 2.383-2.382h86.734a2.386 2.386 0 0 1 2.383 2.382v25.914a2.383 2.383 0 0 0 2.383 2.382z"/>
            <path fill-rule="nonzero" d="M85.517 63.867c-12.087 0-21.922 9.834-21.922 21.922 0 6.27 2.648 11.934 6.882 15.934.08.085.164.165.256.238 3.901 3.57 9.093 5.75 14.784 5.75 5.691 0 10.883-2.181 14.784-5.75.092-.073.176-.154.256-.238 4.235-4 6.882-9.663 6.882-15.934 0-12.088-9.834-21.922-21.922-21.922zm0 39.078c-3.89 0-7.482-1.304-10.363-3.495a11.837 11.837 0 0 1 10.363-6.036c4.361 0 8.27 2.323 10.363 6.036a17.065 17.065 0 0 1-10.363 3.495zm-3.812-18.11v-1.548a3.817 3.817 0 0 1 3.812-3.812 3.817 3.817 0 0 1 3.813 3.812v1.549a3.817 3.817 0 0 1-3.813 3.812 3.817 3.817 0 0 1-3.812-3.812zM99.323 95.96a16.53 16.53 0 0 0-7.02-5.885 8.533 8.533 0 0 0 1.792-5.24v-1.548c0-4.73-3.848-8.578-8.578-8.578-4.73 0-8.578 3.848-8.578 8.578v1.549c0 1.971.67 3.788 1.793 5.239a16.53 16.53 0 0 0-7.02 5.885 17.063 17.063 0 0 1-3.351-10.17c0-9.46 7.696-17.157 17.156-17.157 9.46 0 17.157 7.696 17.157 17.156 0 3.805-1.247 7.322-3.35 10.17z"/>
            <path d="M98.384 155.367H85.517a2.383 2.383 0 0 0 0 4.766h12.867a2.383 2.383 0 0 0 0-4.766zM98.384 142.023H64.55a2.383 2.383 0 0 0 0 4.766h33.835a2.383 2.383 0 0 0 0-4.766zM98.384 128.68H64.55a2.383 2.383 0 0 0 0 4.765h33.835a2.383 2.383 0 0 0 0-4.765zM56.056 116.034a2.401 2.401 0 0 0-1.687-.698 2.4 2.4 0 0 0-1.684.698 2.4 2.4 0 0 0-.699 1.685 2.4 2.4 0 0 0 .699 1.684 2.405 2.405 0 0 0 1.684.699c.63 0 1.242-.255 1.687-.699a2.401 2.401 0 0 0 .698-1.684 2.4 2.4 0 0 0-.698-1.685zM56.056 129.378a2.405 2.405 0 0 0-1.687-.698c-.627 0-1.239.255-1.684.698a2.4 2.4 0 0 0-.699 1.684 2.4 2.4 0 0 0 .699 1.685 2.405 2.405 0 0 0 1.684.698c.63 0 1.242-.255 1.687-.698a2.401 2.401 0 0 0 .698-1.684 2.4 2.4 0 0 0-.698-1.685zM56.056 142.722a2.405 2.405 0 0 0-1.687-.699c-.627 0-1.239.255-1.684.699a2.4 2.4 0 0 0-.699 1.684 2.4 2.4 0 0 0 .699 1.685 2.4 2.4 0 0 0 1.684.698c.63 0 1.244-.255 1.687-.698a2.401 2.401 0 0 0 .698-1.685 2.4 2.4 0 0 0-.698-1.684zM98.384 115.336H64.55a2.383 2.383 0 0 0 0 4.766h33.835a2.383 2.383 0 0 0 0-4.766z"/>
            <path fill-rule="nonzero" d="M151.997 82.053a9.943 9.943 0 0 0-7.595-1 9.942 9.942 0 0 0-6.076 4.663l-29.986 51.936c-.164.285-.268.6-.305.928l-2.11 18.906a2.384 2.384 0 0 0 3.78 2.183l15.318-11.281c.265-.195.487-.443.65-.728l29.986-51.936c2.76-4.779 1.117-10.912-3.662-13.671zm-40.732 70.549l1.102-9.873 6.897 3.982-7.999 5.89zm11.473-9.388l-9.08-5.242 24.063-41.678 9.08 5.242-24.063 41.678zm28.794-49.873l-2.348 4.068-9.08-5.242 2.349-4.068a5.208 5.208 0 0 1 3.183-2.443 5.207 5.207 0 0 1 3.978.524c1.212.7 2.08 1.83 2.442 3.183a5.208 5.208 0 0 1-.524 3.978z"/>
        </g>
    </g>
</svg>
