<svg xmlns="http://www.w3.org/2000/svg" width="606.19" height="655.76" viewBox="0 0 606.19 655.76">
  <title>logocamp</title>
  <g id="Layer_2" data-name="Layer 2">
    <g id="Layer_4" data-name="Layer 4">
      <g>
        <path d="M262.15,606.33l-1.84-.34A239.56,239.56,0,0,1,167,567.09a236.59,236.59,0,0,1-58.35-58.34l-3.83-5.48L72.29,531.7,8.69,461c21.27-17.84,81.6-75.7,94.54-167.26l.39-2.78L86.56,272.05l19.12-17.23-.07-2.76C103.27,157.7,49.1,94.15,27.52,72.52l19.75-32.9h62.89l30.2-30.2a321.32,321.32,0,0,0,69,33.85,321.31,321.31,0,0,0,70.71,16L284.05,64a24.79,24.79,0,0,0,38.09,0l3.95-4.73a321.31,321.31,0,0,0,70.71-16,321.09,321.09,0,0,0,69-33.85L496,39.62h62.9l19.74,32.9c-21.58,21.63-75.75,85.18-78.09,179.54l-.07,2.76,19.13,17.23L502.57,291l.39,2.78C515.91,385.34,576.23,443.2,597.5,461L533.9,531.7l-32.48-28.43-3.83,5.48a236.59,236.59,0,0,1-58.35,58.34A239.56,239.56,0,0,1,345.88,606l-1.84.34L303.1,647.28Z" style="fill: #0e151f"/>
        <path d="M7.25,460.93c20.43-16.95,81.93-74.9,95-167.3l.33-2.31L85.14,272l19.53-17.6-.06-2.3c-2.35-94.82-57.24-158.41-78.35-179.4L46.7,38.62h63.05L140.23,8.14a320.48,320.48,0,0,0,69.49,34.19,320.57,320.57,0,0,0,70.89,16l4.21,5a23.79,23.79,0,0,0,36.55,0l4.21-5a320.45,320.45,0,0,0,70.89-16A320.26,320.26,0,0,0,466,8.14l30.48,30.48h63.05l20.44,34.06c-21.11,21-76,84.58-78.35,179.4l-.06,2.3L521.05,272l-17.43,19.34.33,2.31C517,386,578.52,444,598.94,460.93L534,533.05l-85-76.17-.13-.1c-55.6-43.56-114.76-50.07-145.08-50.07-70.64,0-121.22,31.37-145.09,50.07l-.11.09L72.19,533.08Z" style="fill: #0e151f"/>
        <circle cx="182.33" cy="549.21" r="20.5" style="fill: #7e1b1d"/>
        <path d="M165.81,502.17A31.72,31.72,0,0,1,184,493.65a32.25,32.25,0,0,1,22.83,6.6c-1.29,1.36-10,10.17-23.25,9.39A29.77,29.77,0,0,1,165.81,502.17Z" style="fill: #d2b068"/>
        <circle cx="424.33" cy="549.21" r="20.5" style="fill: #7e1b1d"/>
        <path d="M440.85,502.17a31.75,31.75,0,0,0-18.23-8.52,32.28,32.28,0,0,0-22.84,6.6c1.3,1.36,10,10.17,23.26,9.39A29.8,29.8,0,0,0,440.85,502.17Z" style="fill: #d2b068"/>
        <path d="M114.5,225.46a31.75,31.75,0,0,1,17.38-10.14,32.21,32.21,0,0,1,23.34,4.52c-1.17,1.46-9,11-22.31,11.45A29.8,29.8,0,0,1,114.5,225.46Z" style="fill: #ffb42a"/>
        <path d="M120.07,239.59a24,24,0,0,1,15.22.26,24.38,24.38,0,0,1,13.33,12.06c-1.33.49-10.17,3.59-18.93-1.33A22.51,22.51,0,0,1,120.07,239.59Z" style="fill: #ffb42a"/>
        <path d="M493.22,225.46a31.79,31.79,0,0,0-17.39-10.14,32.19,32.19,0,0,0-23.33,4.52c1.16,1.46,9,11,22.31,11.45A29.8,29.8,0,0,0,493.22,225.46Z" style="fill: #ffb42a"/>
        <path d="M487.65,239.59a24,24,0,0,0-15.22.26,24.38,24.38,0,0,0-13.33,12.06c1.33.49,10.17,3.59,18.92-1.33A22.49,22.49,0,0,0,487.65,239.59Z" style="fill: #ffb42a"/>
        <path d="M473,279.65l-77.35-7.94-7.35-20.34L353,204.65q-6.93-44.65-13.85-89.31L302.83,14.71,272,100l2,38.63q-28.43,56.52-56.84,113l-7.24,20L137,289.65,76.83,271.71a241.16,241.16,0,0,0,452,0Z" style="fill: #063542"/>
        <path d="M414.83,270.41,406,245.87l-206.41.39-8.72,24.15,112,39.8Z" style="fill: #f9fafb"/>
        <path d="M301.84,230.78h2a43,43,0,0,1,43,43v.84a43,43,0,0,1-43,43h-2.4a42.58,42.58,0,0,1-42.58-42.59v-1.27A43,43,0,0,1,301.84,230.78Z" style="fill: #97221b"/>
        <path d="M302.83,314.21a20.48,20.48,0,0,1-18.14-30,20.5,20.5,0,0,1-.62-40.89c.58,0,1.17-.08,1.76-.08a20.36,20.36,0,0,1,17,9.07,20.33,20.33,0,0,1,17-9.07c.58,0,1.17,0,1.76.08a20.5,20.5,0,0,1-.62,40.89,20.28,20.28,0,0,1,2.36,9.53A20.52,20.52,0,0,1,302.83,314.21Z" style="fill: #d23516"/>
        <circle cx="302.83" cy="273.71" r="8" style="fill: #ffdb55"/>
        <circle cx="303.04" cy="105.65" r="6" style="fill: #ffb42a"/>
        <path d="M90.83,344.71c-2.47,6.9-5.44,14.28-9,22-3.92,8.49-8,16.16-12,23a80.6,80.6,0,0,0,56,6c-5.26-6.39-10.64-13.39-16-21A353.88,353.88,0,0,1,90.83,344.71Z" style="fill: #e53d34"/>
        <path d="M105.91,404.23a87.1,87.1,0,0,1-38.76-9.15l-5.74-2.86,3.24-5.54c4.25-7.27,8.2-14.83,11.73-22.48,3.23-7,6.19-14.24,8.8-21.51l4.42-12.33,6.45,11.4c5.71,10.09,12,20,18.68,29.49,5,7.05,10.26,14,15.73,20.65l6,7.29-9.14,2.34A86.69,86.69,0,0,1,105.91,404.23ZM78.3,386.94a74.61,74.61,0,0,0,36.62,4.73c-3.44-4.42-6.78-8.94-10-13.5-4.51-6.4-8.84-13-13-19.7q-2.23,5.44-4.7,10.76C84.51,375.21,81.51,381.15,78.3,386.94Z" style="fill: #e5c57f"/>
        <path d="M515.83,344.71c2.47,6.9,5.43,14.28,9,22,3.91,8.49,8,16.16,12,23a80.6,80.6,0,0,1-56,6c5.25-6.39,10.63-13.39,16-21C504.18,364.29,510.46,354.19,515.83,344.71Z" style="fill: #e53d34"/>
        <path d="M500.75,404.23a86.77,86.77,0,0,1-21.41-2.7l-9.14-2.34,6-7.29c5.47-6.65,10.77-13.6,15.73-20.65,6.68-9.47,13-19.39,18.69-29.49l6.45-11.4,4.42,12.33c2.6,7.27,5.56,14.51,8.79,21.51,3.54,7.65,7.48,15.21,11.74,22.48l3.23,5.54-5.73,2.86a87.16,87.16,0,0,1-38.76,9.15Zm-9-12.56a74.61,74.61,0,0,0,36.62-4.73c-3.2-5.79-6.21-11.73-9-17.71q-2.45-5.31-4.69-10.76c-4.11,6.71-8.45,13.31-13,19.7C498.52,382.73,495.17,387.24,491.73,391.67Z" style="fill: #e5c57f"/>
        <path d="M216,130.15c-2.13,2.7-19.93,24.5-50.5,24.5-3.44,0-31.58-.49-50.5-24.5,2.12-2.7,19.93-24.5,50.5-24.5C169,105.65,197.12,106.14,216,130.15Z" style="fill: #fff"/>
        <circle cx="165.54" cy="130.15" r="24.5" style="fill: #7e1b1d"/>
        <path d="M397.83,160.71q.5,8,1,16c1,1.42,14.58,19.86,38,19,20.69-.75,32.48-16,34-18q1-7.5,2-15Z" style="fill: #fff"/>
        <path d="M479.83,125.71a40.81,40.81,0,0,0,2-11c.7-17.45-10.37-30.15-14-34q-5.5,12-11,24a66.31,66.31,0,0,0-39-2l-9-25c-2.6,1.88-19.81,14.69-20,35a38,38,0,0,0,3,15,51.46,51.46,0,0,0-6,27.5c18.92,24,47.06,24.5,50.5,24.5,30.57,0,48.37-21.8,50.5-24.5a52.57,52.57,0,0,0-7-29.5Z" style="fill: #063542"/>
        <path d="M463.27,130.4a14.79,14.79,0,0,0-9.37.16,15,15,0,0,0-8.21,7.42,14.37,14.37,0,0,0,11.65-.81A13.89,13.89,0,0,0,463.27,130.4Z" style="fill: #ffb42a"/>
        <path d="M408.14,130.4a14.78,14.78,0,0,1,9.37.16,15,15,0,0,1,8.2,7.42,14.37,14.37,0,0,1-11.65-.81A13.85,13.85,0,0,1,408.14,130.4Z" style="fill: #ffb42a"/>
        <path d="M441.23,147.81a5.69,5.69,0,0,1-10.8,0,8,8,0,0,1,10.8,0Z" style="fill: #ffb42a"/>
        <circle cx="433.83" cy="187.71" r="9" style="fill: #d23516"/>
        <path d="M220,127.05a67.87,67.87,0,0,0-29.89-21.68c.11-.14.23-.28.33-.42a4,4,0,0,0,.74-2.59A21.32,21.32,0,0,1,191,99.5c.14-1.84.18-3.7.14-5.6s-.11-3.79-.34-5.74l-.95-.3c-1.29,1.49-2.38,3-3.49,4.58s-2.1,3.12-3,4.72a22.58,22.58,0,0,1-1.69,2.3,4.07,4.07,0,0,0-.84,2.57,5.09,5.09,0,0,0,0,.55,74.17,74.17,0,0,0-10.24-1.67,20.45,20.45,0,0,0,1.71-4.9,11.25,11.25,0,0,0-.06-5c-.38-1.67-.9-3.33-1.14-5-.48-3.33-1.08-6.67-1.8-10s-1.45-6.67-2.4-10h-1.2c-1,3.33-1.66,6.67-2.4,10s-1.31,6.67-1.8,10c-.23,1.67-.75,3.33-1.14,5a11.55,11.55,0,0,0-.06,5,21.19,21.19,0,0,0,1.64,4.74,66.74,66.74,0,0,0-9.44,1.16,4,4,0,0,0-.83-2.45,22.58,22.58,0,0,1-1.69-2.3c-.92-1.6-1.92-3.17-3-4.72s-2.2-3.09-3.49-4.58l-.95.3c-.23,2-.28,3.84-.34,5.74s0,3.76.14,5.6a21.32,21.32,0,0,1-.12,2.86,4,4,0,0,0,.54,2.24,73.85,73.85,0,0,0-31.67,22.45l-2.44,3.1,2.44,3.09a67.93,67.93,0,0,0,31.25,22.18,4.05,4.05,0,0,0-.62,2.38,21.32,21.32,0,0,1,.12,2.86c-.13,1.84-.18,3.7-.14,5.6s.11,3.79.34,5.74l.95.3c1.29-1.49,2.38-3,3.49-4.58s2.1-3.12,3-4.72a22.58,22.58,0,0,1,1.69-2.3,4,4,0,0,0,.84-2.57h0a73.9,73.9,0,0,0,10.07,1.4,20.55,20.55,0,0,0-1.58,4.62,11.25,11.25,0,0,0,.06,5c.38,1.67.9,3.33,1.14,5,.48,3.33,1.08,6.67,1.8,10s1.45,6.67,2.4,10h1.2c1-3.33,1.66-6.67,2.4-10s1.31-6.67,1.8-10c.23-1.67.75-3.33,1.14-5a11.4,11.4,0,0,0,.06-5,20.52,20.52,0,0,0-1.63-4.72,67.19,67.19,0,0,0,9.43-1.42s0,.08,0,.12a4.07,4.07,0,0,0,.84,2.57,22.58,22.58,0,0,1,1.69,2.3c.92,1.6,1.92,3.17,3,4.72s2.2,3.09,3.49,4.58l.95-.3c.23-1.95.28-3.84.34-5.74s0-3.76-.14-5.6a21.32,21.32,0,0,1,.12-2.86,4,4,0,0,0-.74-2.59l-.07-.08A73.68,73.68,0,0,0,220,133.24l2.44-3.09ZM185,130.15a19.5,19.5,0,1,1-19.5-19.5A19.53,19.53,0,0,1,185,130.15Zm-63.43,0A64.6,64.6,0,0,1,139.13,117a29.42,29.42,0,0,0,0,26.27A57.69,57.69,0,0,1,121.61,130.19Zm70.33,13.09a29.38,29.38,0,0,0,0-26.27,57.77,57.77,0,0,1,17.52,13.1A64.6,64.6,0,0,1,191.94,143.28Z" style="fill: #ffb42a"/>
        <path d="M565,446.65a190.9,190.9,0,0,1,8-57l-34-44a991.38,991.38,0,0,1-236,28,991.8,991.8,0,0,1-236-29l-34,45a199.52,199.52,0,0,1,8,57,199.86,199.86,0,0,1-12,67l33,30a1768.27,1768.27,0,0,1,482,0l34-30A191.53,191.53,0,0,1,565,446.65Z" style="fill: #fff"/>
        <path d="M78.23,404.33,89,413.51v59.2L98.92,481,82.37,494.85l-10.8-9.18L71,427.73,60.6,419.09Z" style="fill: #0e151f"/>
        <path d="M113,401.65l19.58.22H171l-19,16.2H132.62v49.12L147,479.43,132.62,492l-18-14.94v-59H93Z" style="fill: #0e151f"/>
        <path d="M155.39,434.43l16.38-13.68,13.67-11.88,19.8,16.2-14.76,12.41-17.09-14.21v47.32L189,483.73l10.26-8.82,2.88,2.7-10.26,8.64-14.39,12.6-22.14-18.36Z" style="fill: #0e151f"/>
        <path d="M210.64,427l17.45-14.75,14.4-12.42,18,14V469l9.9,8.46-12.95,12.42-14.58-12.24L228.63,490l-18-14.94Zm31.85,49.85V424.53l-13.86-11.7v52.36Z" style="fill: #0e151f"/>
        <path d="M291.08,410.21l11.16,9.72,14.93-12.06,17.28,12.24L349,407.87l18,14.94V484l-18,14.76v-66.4l-14.39-12.06V484l-18,14.76v-66.4l-14.39-12.06v63.88l-18,14.76V434.86l-11.16-9.35Z" style="fill: #0e151f"/>
        <path d="M382.21,416.32l31.49-26.45,1.8,1.44,18,14.94v55.24l-18,15.12h-16V493l-17.28,14.76Zm28.26,42.83,5-4.32V416.15l-11.15-9.54-4.86,4.32v48.22Z" style="fill: #0e151f"/>
        <circle cx="303.04" cy="528.65" r="15" style="fill: #d23516"/>
        <circle cx="68.04" cy="58.65" r="6" style="fill: #ffb42a"/>
        <circle cx="536.86" cy="58.65" r="6" style="fill: #ffb42a"/>
        <path d="M491.26,143.39a57.52,57.52,0,0,0-6-18.25,44.84,44.84,0,0,0,1.6-10.23c.72-17.84-9.31-31.24-15.36-37.63l-5.09-5.39L454.14,98.57a71.14,71.14,0,0,0-33.09-1.68l-9.76-27.11-5.39,3.88c-5.12,3.69-21.87,17.42-22.07,39a42.47,42.47,0,0,0,2.53,14.77,56.23,56.23,0,0,0-5.52,28.08l.1,1.56,1,1.23a67.4,67.4,0,0,0,11.48,11.44l.55,8.7.82,1.16c1.57,2.2,15.73,21.13,40.47,21.13l1.79,0c22.37-.82,35.43-16.81,37.82-20l.78-1,1.1-8.21a71.74,71.74,0,0,0,14.05-13.15l1-1.23.09-1.57A57.76,57.76,0,0,0,491.26,143.39Zm-85.11,34.23a74.62,74.62,0,0,0,16.58,5.55,11.82,11.82,0,0,0-.9,4.54c0,.17,0,.33,0,.49A45,45,0,0,1,406.15,177.62Zm27.68,16.09a6,6,0,1,1,6-6A6,6,0,0,1,433.83,193.71Zm11.89-4.47a12.81,12.81,0,0,0,.11-1.53,12.14,12.14,0,0,0-.55-3.59,67.25,67.25,0,0,0,17.31-4.72A41.49,41.49,0,0,1,445.72,189.24Zm36.18-35.91c-4.7,5.52-20.43,21.38-45.57,21.38-4.71,0-28.68-1-45.58-21.37a45.83,45.83,0,0,1,.5-8.28,46.71,46.71,0,0,1,5-15l1.11-2.08-.91-2.19a33.13,33.13,0,0,1-2.61-13c.11-12.09,7.36-21.36,12.73-26.59l8.1,22.5,4.39-1.11a61.32,61.32,0,0,1,36.07,1.85l4.33,1.58L469,90.08c4.15,5.92,8.19,14.35,7.79,24.43a35.87,35.87,0,0,1-1.75,9.65l-.7,2.12,1.11,1.93a48,48,0,0,1,5.89,16.69A47.39,47.39,0,0,1,481.9,153.33Z" style="fill: #ffb42a"/>
        <path d="M576.58,493.25l29.61-32.91c-1.27-1-3.52-2.77-6.51-5.32-.75-.64-1.55-1.33-2.39-2.07-1.67-1.47-3.52-3.13-5.5-5-1-.93-2-1.9-3.09-2.93l-1.61-1.57q-2.46-2.41-5.1-5.14c-.58-.6-1.18-1.22-1.77-1.85-3-3.14-6.1-6.58-9.3-10.29a186,186,0,0,1,6.91-35.1l.73-2.46L541,340l-3.15.76q-7.87,1.92-15.79,3.69a246.93,246.93,0,0,1-8.88-29.11,245,245,0,0,0,20.32-41.91l2.94-7.88-13,1.84-16.89-15.21c0-1.61.09-3.21.16-4.8,4.08-92.24,58.42-152.86,75.87-170.36.61-.6,1.16-1.15,1.68-1.65l1.38-1.35.58-.55L562.32,33.62H498.51L466.61,1.71c-1.08.73-2.19,1.46-3.32,2.2a316.2,316.2,0,0,1-49.4,26.33c-6.05,2.56-12.4,5-19.07,7.37-10,3.48-19.61,6.27-28.75,8.51a316.53,316.53,0,0,1-43,7.44l-.6.71L302.83,0,283.38,53.83l-.22-.27c-6.87-.7-14.41-1.71-22.5-3.13a314.41,314.41,0,0,1-49.29-12.82C203.86,35,196.76,32.18,190,29.27A315.18,315.18,0,0,1,142.9,3.91c-1.13-.74-2.24-1.47-3.32-2.2l-31.9,31.91H43.87L19.94,73.5a239.13,239.13,0,0,1,21,23l1.46,1.82c4.15,5.24,8.59,11.23,13.08,17.94,1.22,1.81,2.44,3.69,3.66,5.61.55.87,1.11,1.76,1.66,2.65,3.37,5.44,6.72,11.27,10,17.48l1.32,2.57a260.46,260.46,0,0,1,13.77,32.26q.63,1.83,1.26,3.69c.34,1.05.68,2.09,1,3.15q.86,2.72,1.67,5.48a248,248,0,0,1,6.9,30.71c.23,1.48.45,3,.66,4.46.42,3,.79,6,1.1,9.08.62,6.13,1,12.42,1.19,18.86L82,268.05l-13.39-4,3.5,9.4A246.08,246.08,0,0,0,92.84,316a247.27,247.27,0,0,1-8.42,27.64q-8.11-1.86-16.18-3.84L65,339,27.53,388.64l.71,2.41a195.29,195.29,0,0,1,6.85,35.34C32,430,28.9,433.39,26,436.47c-.6.63-1.19,1.25-1.78,1.85q-2.64,2.73-5.1,5.14c-.54.54-1.08,1.06-1.61,1.57-1.06,1-2.09,2-3.09,2.93-2,1.86-3.83,3.52-5.5,5L6.52,455c-3,2.55-5.25,4.34-6.52,5.32l30,33.31c-1.57,6.16-3.45,12.27-5.63,18.29l-1.15,3.15L60.4,548.92l2.32-.32q32.15-4.43,64.58-7.65A241.62,241.62,0,0,0,163.51,572a244.18,244.18,0,0,0,95.72,39.88l43.87,43.87L347,611.89A242.31,242.31,0,0,0,478.88,541q32.36,3.24,64.47,7.64l2.28.32L584,515.09l-1.26-3.25A187,187,0,0,1,576.58,493.25ZM101,310.11a70.88,70.88,0,0,0,34.81,22.6c.11-1.07.23-2.13.34-3.2a67.68,67.68,0,0,1-15.38-10,69.79,69.79,0,0,1-20.09-30.17,15.82,15.82,0,0,0,6.79,3.45,15.59,15.59,0,0,0,5,.32,27.06,27.06,0,0,0-2.23-6.2l26.66,7.94,63.65-15.66,60.86,21.63a47.58,47.58,0,0,0,40,21.85h2.4A48,48,0,0,0,344,300.89L408.31,278l64.83,6.66,26.64-3.79a27,27,0,0,0-6.37,12.19,15.59,15.59,0,0,0,5-.32,15.82,15.82,0,0,0,6.79-3.45,69.79,69.79,0,0,1-20.09,30.17,67.68,67.68,0,0,1-15.38,10c.12,1.07.23,2.13.34,3.2A70.79,70.79,0,0,0,504,311.12a235.91,235.91,0,0,1-34.78,43.73,986.94,986.94,0,0,1-164.17,13.8h-2a987.49,987.49,0,0,1-167.56-14.72A235.52,235.52,0,0,1,101,310.11Zm17.67,40.74q-12.25-2.36-24.44-5,3.27-8.94,6-18.48A243,243,0,0,0,118.69,350.85ZM284.28,245.78c.52-.05,1-.07,1.55-.07a18,18,0,0,1,16.11,10,1,1,0,0,0,.89.54,1,1,0,0,0,.88-.54,18,18,0,0,1,16.12-10c.51,0,1,0,1.55.07a18,18,0,0,1-1.55,35.93c-.51,0-1,0-1.5-.06h-.09a1,1,0,0,0-.8,1.58,18,18,0,1,1-29.22,0,1,1,0,0,0-.8-1.57h-.09q-.75.06-1.5.06a18,18,0,0,1-1.55-35.93Zm-1.52-4.84a37.69,37.69,0,0,1,19.08-5.16h2a37.7,37.7,0,0,1,19.09,5.16c-.37-.05-.73-.11-1.1-.14-.66-.06-1.32-.09-2-.09a22.84,22.84,0,0,0-17,7.51,22.86,22.86,0,0,0-17-7.51c-.65,0-1.32,0-2,.09C283.49,240.83,283.12,240.89,282.76,240.94Zm41.82,45.28A23,23,0,0,0,341.7,270.8c.08,1,.13,2,.13,3v.84A38.06,38.06,0,0,1,320,309a23,23,0,0,0,4.62-22.82ZM346.06,251l56.39-.1,6,16.5-58.55,20.81a47.8,47.8,0,0,0,2-13.56v-.84A47.73,47.73,0,0,0,346.06,251Zm-82.23,24.08v-1.27c0-1,.05-2,.13-3a22.82,22.82,0,0,0,4.73,8.25,23.11,23.11,0,0,0,12.4,7.17,23.14,23.14,0,0,0-1.13,10,22.87,22.87,0,0,0,6,13.1A37.62,37.62,0,0,1,263.83,275.06Zm-8.16,13.09-58.43-20.77,5.83-16.13,56.45-.1a47.66,47.66,0,0,0-5.69,22.64v1.27A47.53,47.53,0,0,0,255.67,288.15Zm250.15,38.63q2.87,10.28,6.41,19.85-13.07,2.81-26.19,5.25A242.71,242.71,0,0,0,505.82,326.78ZM573.65,71.93a274.6,274.6,0,0,0-26,31.22,38.73,38.73,0,0,1-10.83-5.5,38.27,38.27,0,0,1-5.82-5.2q5.72-5.16,11.84-9.82a180.2,180.2,0,0,1,27-16.92Zm-236,13.23a22.53,22.53,0,0,0,14.25,3.21,24,24,0,0,0-7.49-13.25,23,23,0,0,0-5.69-3.71,157.89,157.89,0,0,0,48.12-3.7c.33-1,.66-2,1-3a143.43,143.43,0,0,1-41,0c-4.47-.64-8.66-1.48-12.6-2.41a325.74,325.74,0,0,0,63.89-15.25,325.51,325.51,0,0,0,67.16-32.52l26.16,26.16,2.93,2.93H509a54.12,54.12,0,0,0,5.85,42c1.66-1.67,3.33-3.33,5-5a45.17,45.17,0,0,1-5-15,45.72,45.72,0,0,1,2.29-22h39.51l8.1,13.5a157.16,157.16,0,0,0-22.9,14.53,159.17,159.17,0,0,0-35,37l4.88,4.15a180.91,180.91,0,0,1,13.75-15.12,67.18,67.18,0,0,0,7.37,6,67.93,67.93,0,0,0,10.35,5.95C521.09,142.32,498.1,190.75,496.58,252l-.12,4.6,3.42,3.08,10.68,9.62-37.62,5.35-53.25-5.46-10.22-28.28-22.77,0-28.92-38.27-13.73-88.55L331.46,79.25A21.29,21.29,0,0,0,337.64,85.16ZM302.83,29.43l31.49,87.15,14,90.08,25.9,34.27-35.35.07a47.88,47.88,0,0,0-35-15.22h-2a47.89,47.89,0,0,0-35.15,15.35l-38.62.07,51-101.49-2.05-38.94ZM58.24,102.79A274.63,274.63,0,0,0,32.55,71.93L36,66.21A180.38,180.38,0,0,1,62,82.63q6.12,4.65,11.83,9.82a38.29,38.29,0,0,1-15.61,10.34Zm48.07,156.85,3.42-3.08-.12-4.6c-1.52-61.5-24.73-110.1-46.94-142.83A66.89,66.89,0,0,0,72,103.65a68,68,0,0,0,7.36-6A177.5,177.5,0,0,1,93.15,112.8L98,108.65a159.39,159.39,0,0,0-35-37,157.82,157.82,0,0,0-21.92-14l8.41-14H87.74a45.82,45.82,0,0,1,2.3,22,45.4,45.4,0,0,1-5,15l5,5a54.06,54.06,0,0,0,5.84-42h15.94l2.93-2.93,26.16-26.16a325.51,325.51,0,0,0,67.16,32.52,325.38,325.38,0,0,0,63.55,15.2c-4,1-8.25,1.81-12.79,2.46a143.42,143.42,0,0,1-41,0c.33,1,.66,2,1,3A157.87,157.87,0,0,0,267,71.41a23,23,0,0,0-5.69,3.71,24,24,0,0,0-7.49,13.25A22.54,22.54,0,0,0,268,85.16a21.14,21.14,0,0,0,6.17-5.92l-7.23,20,2,38.32L216.86,241.23l-20.82,0-11.39,31.53-47.49,11.68-43.9-13.08ZM14.41,461.4a277.83,277.83,0,0,0,21.55-21q.09,3.13.08,6.27a193.79,193.79,0,0,1-3.4,35Zm141.5,89.76q-6.79-5.6-13.13-11.69,7.74-.71,15.5-1.34a26.16,26.16,0,0,0-2.45,11.08C155.83,549.87,155.86,550.51,155.91,551.16Zm11.92-1.95a14.47,14.47,0,0,1,7-12.37q6.65-.5,13.29-.92a14.5,14.5,0,1,1-20.27,13.29Zm177,50.88-3.68.67-2.64,2.65L303.1,638.79l-35.39-35.38-2.64-2.65-3.68-.67a234.17,234.17,0,0,1-71.2-25.57,26.55,26.55,0,0,0,18.64-25.31c0-.75,0-1.49-.1-2.23a191.53,191.53,0,0,0,55.6,18.26A2.28,2.28,0,0,0,267,563l0-2.56a2.26,2.26,0,0,0-1.7-2.24,208.4,208.4,0,0,1-55.85-23.55q37-2,73.92-2.38a20,20,0,0,0,39.31,0q37.17.4,74.42,2.41A207.78,207.78,0,0,1,341,558.16a2.36,2.36,0,0,0-1.76,2.52c.08.82.16,1.64.25,2.47a2.36,2.36,0,0,0,2.72,2.11A191.77,191.77,0,0,0,397.93,547c-.06.74-.1,1.48-.1,2.23a26.55,26.55,0,0,0,18.35,25.22A234.51,234.51,0,0,1,344.8,600.09ZM293,528.65a10,10,0,1,1,10,10A10,10,0,0,1,293,528.65Zm131.29,35.06A14.49,14.49,0,0,1,418.48,536q6.72.43,13.45.93a14.48,14.48,0,0,1-7.6,26.82Zm26.45-13c0-.51.05-1,.05-1.54a26.25,26.25,0,0,0-2.43-11c5,.41,10,.85,15,1.3Q457.29,545.35,450.78,550.75ZM569,515a5.86,5.86,0,0,0-.67-.54,33.85,33.85,0,0,1-2.92-2.08c-1.73-1.55-3.54-3-5.46-4.44s-3.84-2.82-5.94-4.09l-1,.7c.57,2.39,1.32,4.65,2.06,6.91s1.6,4.44,2.54,6.56a29,29,0,0,1,1.08,3.42,5.46,5.46,0,0,0,.94,1.79l-5,4.46-.29-.23a33.85,33.85,0,0,1-2.92-2.08c-1.73-1.55-3.54-3-5.46-4.44s-3.84-2.82-5.94-4.09l-1,.7c.57,2.39,1.32,4.65,2.06,6.91s1.6,4.44,2.54,6.56a29,29,0,0,1,1.08,3.42,5.62,5.62,0,0,0,.66,1.4l-2.94,2.59A1781.84,1781.84,0,0,0,322,522.27a20,20,0,0,0-37.88,0A1781.05,1781.05,0,0,0,63.67,538.38l-2.94-2.67a5.89,5.89,0,0,0,.61-1.32A31,31,0,0,1,62.42,531c.94-2.12,1.79-4.3,2.54-6.56s1.5-4.52,2.06-6.91l-1-.7c-2.1,1.27-4,2.68-5.94,4.09s-3.73,2.89-5.46,4.44a32.37,32.37,0,0,1-2.92,2.08l-.07.05-5-4.57a5.76,5.76,0,0,0,.71-1.5A31,31,0,0,1,48.42,518c.94-2.12,1.79-4.3,2.54-6.56s1.5-4.52,2.06-6.91l-1-.7c-2.1,1.27-4,2.68-5.94,4.09s-3.73,2.89-5.46,4.44a32.37,32.37,0,0,1-2.92,2.08,1.92,1.92,0,0,0-.22.18l-2.65-2.41A204.27,204.27,0,0,0,46,446.68a204.56,204.56,0,0,0-7.51-56l5.23-6.92c.18.07.35.15.53.2A31.78,31.78,0,0,1,47.71,385q3.18,1.41,6.56,2.55c2.27.73,4.52,1.49,6.91,2.05l.71-1c-1.28-2.1-2.69-4-4.09-5.94s-2.89-3.73-4.44-5.45a31.27,31.27,0,0,1-2.08-2.92l-.21-.27L56.44,367a5.33,5.33,0,0,0,1.85,1A31.78,31.78,0,0,1,61.71,369q3.18,1.41,6.56,2.55c2.27.73,4.52,1.49,6.91,2.05l.71-1c-1.28-2.1-2.69-4-4.09-5.94s-2.89-3.73-4.44-5.45a31.27,31.27,0,0,1-2.08-2.92A5.43,5.43,0,0,0,64,357L69,350.29a997.24,997.24,0,0,0,234,28.36h2a997.66,997.66,0,0,0,232-27.38l4.67,6.05a5.82,5.82,0,0,0-.94,1,31.27,31.27,0,0,1-2.08,2.92c-1.54,1.72-3,3.54-4.44,5.45s-2.81,3.84-4.09,5.94l.71,1c2.39-.56,4.65-1.32,6.91-2.05s4.44-1.61,6.56-2.55a33.26,33.26,0,0,1,3.42-1.08,5.64,5.64,0,0,0,1.58-.76l5.48,7.09s0,0-.05.07a31.27,31.27,0,0,1-2.08,2.92c-1.54,1.72-3,3.54-4.44,5.45s-2.81,3.84-4.09,5.94l.71,1c2.39-.56,4.65-1.32,6.91-2.05s4.44-1.61,6.56-2.55a33.26,33.26,0,0,1,3.42-1.08,3.47,3.47,0,0,0,.41-.16l5.33,6.9a195.94,195.94,0,0,0,4.62,121.5Zm1-68.36c0-2.14,0-4.27,0-6.4a278.33,278.33,0,0,0,21.71,21.21l-18,20A185.63,185.63,0,0,1,570,446.59Z" style="fill: #ffb42a"/>
        <path d="M523,430.65l-8,10-13-10v-10h29l14-16H497l-12,14v18l20,15,7-8,13,11q-.24,13.82-.47,27.64L499,460.65,480.58,477.4l3,2.82,3.57-3.19,26.32,21.43,15-12.6,13.54-11.09q0-13.56,0-27.12Z" style="fill: #7c191d"/>
        <path d="M474.87,401.84l.17-.19H459l-20,16.42H457.4v77.64L475,480.09q.07-39.22.16-78.46Z" style="fill: #7c191d"/>
      </g>
    </g>
  </g>
</svg>
